<svg width="16" height="15" viewBox="0 0 16 15" fill="none" xmlns="http://www.w3.org/2000/svg">
<path d="M7.89017 11.2133C6.52809 10.0564 5.40401 9.1012 4.6193 8.24217C3.83218 7.38051 3.40439 6.63422 3.40439 5.8977C3.40439 4.88531 4.21365 4.11864 5.31192 4.11864C6.16026 4.11864 6.98078 4.63598 7.26728 5.3241L7.29291 5.38567H7.3596H8.42646H8.49315L8.51878 5.3241C8.80528 4.63598 9.6258 4.11864 10.4741 4.11864C11.5724 4.11864 12.3817 4.88531 12.3817 5.8977C12.3817 6.6342 11.9539 7.3805 11.1661 8.24214C10.3807 9.10116 9.25512 10.0564 7.89017 11.2133ZM7.82817 12.8727L7.89303 12.9279L7.95789 12.8727L8.78943 12.1641C8.78945 12.1641 8.78948 12.1641 8.7895 12.1641C10.2644 10.9122 11.497 9.86539 12.3598 8.87738C13.2235 7.88838 13.7288 6.94481 13.7288 5.8977C13.7288 4.17729 12.2895 2.84489 10.4741 2.84489C9.48663 2.84489 8.5373 3.25861 7.89303 3.91625C7.24876 3.25861 6.29943 2.84489 5.31192 2.84489C3.49652 2.84489 2.05723 4.17729 2.05723 5.8977C2.05723 6.94481 2.56259 7.88838 3.42623 8.87738C4.28902 9.86539 5.52169 10.9122 6.99657 12.1641C6.99659 12.1641 6.99661 12.1641 6.99663 12.1641L7.82817 12.8727Z" fill="#3F3F3F" stroke="#3F3F3F" stroke-width="0.2"/>
</svg>
